<svg width="40" height="40" viewBox="0 0 40 40" fill="none" xmlns="http://www.w3.org/2000/svg">
<path d="M20.0032 24.9C18.6672 24.9 17.3859 24.3838 16.4412 23.4648C15.4964 22.5459 14.9657 21.2996 14.9657 20C14.9657 18.7004 15.4964 17.4541 16.4412 16.5352C17.3859 15.6163 18.6672 15.1 20.0032 15.1C21.3392 15.1 22.6205 15.6163 23.5652 16.5352C24.5099 17.4541 25.0406 18.7004 25.0406 20C25.0406 21.2996 24.5099 22.5459 23.5652 23.4648C22.6205 24.3838 21.3392 24.9 20.0032 24.9ZM30.697 21.358C30.7546 20.91 30.7977 20.462 30.7977 20C30.7977 19.538 30.7546 19.076 30.697 18.6L33.7339 16.318C34.0073 16.108 34.0793 15.73 33.9066 15.422L31.028 10.578C30.8553 10.27 30.4667 10.144 30.1501 10.27L26.5663 11.67C25.8178 11.124 25.0406 10.648 24.1339 10.298L23.6014 6.588C23.5721 6.42311 23.4838 6.2736 23.3521 6.16597C23.2204 6.05835 23.0538 5.99955 22.8817 6H17.1246C16.7648 6 16.4626 6.252 16.405 6.588L15.8725 10.298C14.9657 10.648 14.1885 11.124 13.4401 11.67L9.85629 10.27C9.53965 10.144 9.15105 10.27 8.97834 10.578L6.09979 15.422C5.91268 15.73 5.99904 16.108 6.2725 16.318L9.30937 18.6C9.2518 19.076 9.20862 19.538 9.20862 20C9.20862 20.462 9.2518 20.91 9.30937 21.358L6.2725 23.682C5.99904 23.892 5.91268 24.27 6.09979 24.578L8.97834 29.422C9.15105 29.73 9.53965 29.842 9.85629 29.73L13.4401 28.316C14.1885 28.876 14.9657 29.352 15.8725 29.702L16.405 33.412C16.4626 33.748 16.7648 34 17.1246 34H22.8817C23.2415 34 23.5438 33.748 23.6014 33.412L24.1339 29.702C25.0406 29.338 25.8178 28.876 26.5663 28.316L30.1501 29.73C30.4667 29.842 30.8553 29.73 31.028 29.422L33.9066 24.578C34.0793 24.27 34.0073 23.892 33.7339 23.682L30.697 21.358Z" fill="black"/>
</svg>