<svg width="40" height="40" viewBox="0 0 40 40" fill="none" xmlns="http://www.w3.org/2000/svg">
<path d="M29.1567 10.8562C27.0337 8.71933 24.2317 7.39012 21.2337 7.09774C18.2357 6.80536 15.2297 7.56812 12.7338 9.25452C10.2379 10.9409 8.40864 13.4453 7.5613 16.3358C6.71397 19.2264 6.90169 22.322 8.09211 25.089C8.21618 25.3462 8.25689 25.6357 8.20856 25.9171L7.06993 31.3903C7.02606 31.6001 7.03502 31.8176 7.096 32.0231C7.15698 32.2286 7.26807 32.4158 7.41928 32.5677C7.54324 32.6908 7.69083 32.7875 7.85317 32.852C8.0155 32.9165 8.18921 32.9474 8.36382 32.943H8.6226L14.1605 31.8302C14.4419 31.7964 14.7274 31.8365 14.9886 31.9467C17.7556 33.1371 20.8512 33.3248 23.7417 32.4775C26.6323 31.6301 29.1367 29.8008 30.8231 27.305C32.5095 24.8091 33.2722 21.8031 32.9799 18.8051C32.6875 15.8071 31.3583 13.0051 29.2214 10.8821L29.1567 10.8562ZM14.8333 21.2979C14.5774 21.2979 14.3272 21.222 14.1144 21.0799C13.9017 20.9377 13.7358 20.7356 13.6379 20.4992C13.54 20.2627 13.5143 20.0026 13.5643 19.7516C13.6142 19.5006 13.7374 19.2701 13.9184 19.0891C14.0993 18.9081 14.3299 18.7849 14.5809 18.735C14.8319 18.6851 15.092 18.7107 15.3284 18.8086C15.5649 18.9066 15.767 19.0724 15.9091 19.2852C16.0513 19.498 16.1272 19.7481 16.1272 20.004C16.1272 20.3472 15.9909 20.6763 15.7482 20.9189C15.5056 21.1616 15.1765 21.2979 14.8333 21.2979ZM20.0089 21.2979C19.753 21.2979 19.5028 21.222 19.29 21.0799C19.0772 20.9377 18.9114 20.7356 18.8135 20.4992C18.7155 20.2627 18.6899 20.0026 18.7398 19.7516C18.7898 19.5006 18.913 19.2701 19.094 19.0891C19.2749 18.9081 19.5055 18.7849 19.7564 18.735C20.0074 18.6851 20.2676 18.7107 20.504 18.8086C20.7405 18.9066 20.9425 19.0724 21.0847 19.2852C21.2269 19.498 21.3028 19.7481 21.3028 20.004C21.3028 20.3472 21.1664 20.6763 20.9238 20.9189C20.6811 21.1616 20.352 21.2979 20.0089 21.2979ZM25.1844 21.2979C24.9285 21.2979 24.6784 21.222 24.4656 21.0799C24.2528 20.9377 24.087 20.7356 23.989 20.4992C23.8911 20.2627 23.8655 20.0026 23.9154 19.7516C23.9653 19.5006 24.0886 19.2701 24.2695 19.0891C24.4505 18.9081 24.681 18.7849 24.932 18.735C25.183 18.6851 25.4432 18.7107 25.6796 18.8086C25.916 18.9066 26.1181 19.0724 26.2603 19.2852C26.4025 19.498 26.4783 19.7481 26.4783 20.004C26.4783 20.3472 26.342 20.6763 26.0994 20.9189C25.8567 21.1616 25.5276 21.2979 25.1844 21.2979Z" fill="#fff"/>
</svg>