<svg width="40" height="40" viewBox="0 0 40 40" fill="none" xmlns="http://www.w3.org/2000/svg">
<path d="M20.0001 19.9998C18.1667 19.9998 16.5973 19.3471 15.2917 18.0415C13.9862 16.7359 13.3334 15.1665 13.3334 13.3332C13.3334 11.4998 13.9862 9.93039 15.2917 8.62484C16.5973 7.31928 18.1667 6.6665 20.0001 6.6665C21.8334 6.6665 23.4029 7.31928 24.7084 8.62484C26.014 9.93039 26.6667 11.4998 26.6667 13.3332C26.6667 15.1665 26.014 16.7359 24.7084 18.0415C23.4029 19.3471 21.8334 19.9998 20.0001 19.9998ZM6.66675 33.3332V28.6665C6.66675 27.7221 6.91008 26.8537 7.39675 26.0615C7.8823 25.2704 8.52786 24.6665 9.33341 24.2498C11.0556 23.3887 12.8056 22.7426 14.5834 22.3115C16.3612 21.8815 18.1667 21.6665 20.0001 21.6665C21.8334 21.6665 23.639 21.8815 25.4167 22.3115C27.1945 22.7426 28.9445 23.3887 30.6667 24.2498C31.4723 24.6665 32.1179 25.2704 32.6034 26.0615C33.0901 26.8537 33.3334 27.7221 33.3334 28.6665V33.3332H6.66675Z" fill="#000"/>
</svg>